<svg version="1.1" id="Layer_1" xmlns="http://www.w3.org/2000/svg" xmlns:xlink="http://www.w3.org/1999/xlink" x="0px" y="0px"
	 width="100%" viewBox="0 0 240 240" enable-background="new 0 0 240 240" xml:space="preserve">

<path fill="#CCD6F6" opacity="1.000000" stroke="none"
	d="
M83.384781,206.211258 
	C92.263931,205.899796 92.956528,206.563217 92.996696,215.039215 
	C93.012489,218.371292 93.049316,221.704987 92.971199,225.035477 
	C92.813477,231.761185 89.199249,234.756409 82.862633,232.216293 
	C74.405296,228.826035 65.790833,225.273651 58.233315,220.290314 
	C28.184105,200.476288 10.205524,172.463455 6.321347,136.649414 
	C2.840824,104.557266 10.855281,74.958153 31.898745,49.972912 
	C51.891972,26.234629 77.422508,12.166590 108.668388,8.829973 
	C137.408142,5.760976 163.851242,12.230214 187.101685,28.951008 
	C218.257187,51.356796 235.200546,81.826469 236.105408,120.867790 
	C236.758957,149.065292 228.457504,174.035065 210.961655,195.871643 
	C197.476486,212.702530 180.529282,225.084518 160.058868,232.293961 
	C153.021011,234.772614 149.137665,231.892609 149.045319,224.281326 
	C148.930130,214.785843 148.887833,205.286255 149.036224,195.791901 
	C149.140060,189.146957 148.355209,182.847260 144.249680,177.321182 
	C143.702164,176.584244 143.583481,175.528717 143.057846,174.024445 
	C144.933853,173.623352 146.466034,173.233124 148.019989,172.973175 
	C165.532883,170.043350 181.353546,163.677155 188.633621,146.195740 
	C196.587494,127.096367 197.594696,107.743279 184.890198,89.567581 
	C183.675400,87.829643 183.213348,84.870224 183.690384,82.770630 
	C185.365845,75.396385 184.645966,68.268723 182.819794,61.088879 
	C181.739700,56.842419 179.396881,55.078415 175.161606,56.801098 
	C168.564713,59.484364 161.806000,61.888023 155.529480,65.195168 
	C151.908066,67.103310 148.798965,68.018898 144.739288,67.105080 
	C128.620819,63.476868 112.487320,63.674385 96.321838,67.221642 
	C94.031136,67.724297 91.201218,66.796013 88.868439,65.891518 
	C81.321136,62.965206 73.911949,59.684952 66.402657,56.657364 
	C62.984825,55.279362 61.154999,56.969131 60.082340,60.204895 
	C57.775494,67.163689 57.098305,74.216278 58.927235,81.335091 
	C59.864399,84.982841 59.338867,87.677261 56.991230,90.934181 
	C50.162598,100.407623 47.692062,111.116585 48.719505,122.941452 
	C49.704155,134.273804 51.895748,144.948349 58.742306,154.308899 
	C66.290924,164.629318 77.085815,169.289062 89.066422,171.932739 
	C92.389450,172.666016 95.730637,173.317078 99.180901,174.030106 
	C97.071640,179.327179 95.538475,184.044342 93.285561,188.388229 
	C92.441040,190.016571 90.071304,191.266632 88.142815,191.852203 
	C76.722252,195.320053 67.162567,191.875504 60.083893,182.170715 
	C58.034100,179.360474 55.979889,176.452881 53.429283,174.139420 
	C51.278160,172.188278 48.560886,170.385422 45.804146,169.721725 
	C43.406723,169.144547 40.603458,170.253098 37.979538,170.616714 
	C39.519691,172.363358 41.169559,174.026260 42.578842,175.872803 
	C46.371784,180.842575 51.414001,185.388062 53.505901,191.014511 
	C57.603287,202.035065 69.374672,207.704987 83.384781,206.211258 
z"/>
</svg>