<?xml version="1.0" encoding="utf-8"?>
<svg width="800px" height="800px" viewBox="0 0 551.034 551.034"
	 xmlns="http://www.w3.org/2000/svg">
	<!-- All elements share the same flat fill -->
	<g fill="#CCD6F6">

		<!-- rounded square background -->
		<path d="M386.878,0H164.156C73.64,0,0,73.64,0,164.156v222.722
             c0,90.516,73.64,164.156,164.156,164.156h222.722
             c90.516,0,164.156-73.64,164.156-164.156V164.156
             C551.033,73.64,477.393,0,386.878,0z
             M495.6,386.878c0,60.045-48.677,108.722-108.722,108.722H164.156
             c-60.045,0-108.722-48.677-108.722-108.722V164.156
             c0-60.046,48.677-108.722,108.722-108.722h222.722
             c60.045,0,108.722,48.676,108.722,108.722V386.878z"/>

		<!-- inner circle + ring -->
		<path d="M275.517,133
             c-78.584,0-142.517,63.933-142.517,142.516
             S196.933,418.034,275.517,418.034
             S418.034,354.101,418.034,275.516
             S354.101,133,275.517,133z
             M275.517,362.6
             c-48.095,0-87.083-38.988-87.083-87.083
             s38.989-87.083,87.083-87.083
             c48.095,0,87.083,38.988,87.083,87.083
             S323.611,362.6,275.517,362.6z"/>

		<!-- small circle (flash‑icon) -->
		<circle cx="418.306" cy="134.072" r="34.149"/>
	</g>
</svg>
